<svg width="24" height="24" viewBox="0 0 24 24" fill="none" xmlns="http://www.w3.org/2000/svg">
<path d="M4.50488 9.60254C4.55621 10.1067 4.98232 10.5 5.5 10.5L18.5 10.5C19.0177 10.5 19.4438 10.1067 19.4951 9.60254L19.5 9.5L19.5 5.5C19.5 4.98232 19.1067 4.55622 18.6025 4.50488L18.5 4.5L5.5 4.5C4.94772 4.5 4.5 4.94772 4.5 5.5L4.5 9.5L4.50488 9.60254ZM18.5 5.5L18.5 9.5L5.5 9.5L5.5 5.5L18.5 5.5ZM4.50488 18.6025C4.55621 19.1067 4.98232 19.5 5.5 19.5L12.5 19.5C13.0177 19.5 13.4438 19.1067 13.4951 18.6025L13.5 18.5L13.5 14.5C13.5 13.9823 13.1067 13.5562 12.6025 13.5049L12.5 13.5L5.5 13.5C4.94772 13.5 4.5 13.9477 4.5 14.5L4.5 18.5L4.50488 18.6025ZM12.5 14.5L12.5 18.5L5.5 18.5L5.5 14.5L12.5 14.5Z" fill="black" fill-opacity="0.9"/>
</svg>
