<svg width="24" height="24" viewBox="0 0 24 24" fill="none" xmlns="http://www.w3.org/2000/svg">
<path d="M12.4102 4.23256C12.7925 3.28421 13.8556 2.74273 14.8457 3.12221L14.8467 3.12123C15.0873 3.21336 15.3073 3.35413 15.4922 3.53432C15.677 3.71445 15.824 3.93089 15.9248 4.16908C16.0255 4.40707 16.0777 4.66335 16.0801 4.92201C16.0824 5.17909 16.0336 5.43445 15.9385 5.67299L15.9395 5.67396L14.4453 9.50307C14.3832 9.66621 14.386 9.84908 14.4531 10.0099C14.5202 10.1702 14.644 10.2926 14.793 10.3546L16.5391 11.0636L16.543 11.0656C16.7405 11.1479 16.9072 11.2883 17.0234 11.466C17.1393 11.6434 17.2003 11.8515 17.2002 12.0626V13.3087C17.2003 15.4631 18.0731 17.2253 19.7246 18.0538C19.9316 18.1578 20.0406 18.39 19.9873 18.6154C19.9339 18.8406 19.7325 18.9999 19.501 19.0001H7.53027C7.39196 19.0001 7.25957 18.9429 7.16504 18.8419C5.85996 17.4464 5.09749 15.6152 5.00879 13.6935L5 13.3087C5.00004 11.1292 5.84817 9.37514 7.19922 7.94447L7.20215 7.94154C7.34764 7.78967 7.53517 7.68333 7.74219 7.63881C7.94936 7.59427 8.16472 7.61386 8.36035 7.69447L8.3623 7.69545L10.1367 8.43568L10.252 8.46986C10.2909 8.47726 10.3305 8.48117 10.3701 8.4806C10.4496 8.47945 10.5287 8.46169 10.6025 8.42885C10.6765 8.39592 10.7452 8.34749 10.8027 8.28627C10.8601 8.2251 10.9055 8.15147 10.9365 8.07045H10.9375L12.4072 4.24037L12.4102 4.23256ZM6.57422 10.5997C6.20379 11.411 6.00002 12.3076 6 13.3087V13.3097C5.99865 15.0484 6.62775 16.719 7.75391 18.0001H9.95996C9.30821 17.1695 8.83673 16.2005 8.58398 15.1574C8.519 14.8891 8.68397 14.618 8.95215 14.5529C9.22035 14.488 9.4915 14.6529 9.55664 14.921C9.84237 16.1005 10.4483 17.1682 11.2998 18.0001H17.9531C17.0565 17.1144 16.5128 15.9265 16.3018 14.6076L6.57422 10.5997ZM14.4893 4.05482C14.0575 3.88895 13.5366 4.11364 13.3379 4.60658L11.8711 8.42885C11.7941 8.62984 11.6785 8.81405 11.5312 8.97084C11.3836 9.12795 11.2066 9.25528 11.0098 9.34291C10.8129 9.43056 10.6002 9.47747 10.3848 9.4806C10.1695 9.48372 9.95604 9.44233 9.75684 9.36049L9.75391 9.35951L7.97949 8.61928L7.95215 8.61635C7.94419 8.6181 7.93532 8.62291 7.92676 8.631L7.70703 8.87221C7.4696 9.1434 7.25405 9.42578 7.06152 9.71986L16.2031 13.4855C16.2019 13.4267 16.2002 13.3678 16.2002 13.3087V12.0617C16.2001 12.0435 16.1948 12.0268 16.1865 12.0138C16.1781 12.0009 16.1676 11.9923 16.1582 11.9884L14.416 11.2804H14.4141C14.0134 11.1154 13.6973 10.7945 13.5303 10.3947C13.3636 9.99525 13.3571 9.54465 13.5127 9.14076L13.5137 9.13881L15.0078 5.31068L15.0098 5.3058C15.0572 5.18785 15.0812 5.06027 15.0801 4.93178C15.0789 4.80319 15.0534 4.67578 15.0039 4.55873C14.9544 4.44179 14.8823 4.33732 14.7939 4.25111C14.7055 4.16489 14.6014 4.09874 14.4893 4.0558V4.05482Z" fill="black"/>
</svg>
